<svg width="24" height="24" viewBox="0 0 24 24" fill="none" xmlns="http://www.w3.org/2000/svg">
<mask id="mask0" style="mask-type:alpha" maskUnits="userSpaceOnUse" x="2" y="5" width="20" height="14">
<path fill-rule="evenodd" clip-rule="evenodd" d="M20.1818 13.4V10.6C20.1818 9.59103 20.1804 8.93955 20.1383 8.44371C20.098 7.9683 20.0295 7.79204 19.9836 7.70552C19.8093 7.37623 19.5312 7.10852 19.1891 6.94074C19.0992 6.89665 18.916 6.83072 18.4221 6.79187C17.907 6.75136 17.2301 6.75 16.1818 6.75L7.81818 6.75C6.7699 6.75 6.09304 6.75136 5.57788 6.79187C5.08395 6.83072 4.90082 6.89665 4.81093 6.94074C4.46881 7.10852 4.19067 7.37623 4.01635 7.70552C3.97055 7.79204 3.90204 7.9683 3.86169 8.44371C3.81959 8.93955 3.81818 9.59103 3.81818 10.6L3.81818 13.4C3.81818 14.409 3.81959 15.0604 3.86169 15.5563C3.90204 16.0317 3.97055 16.208 4.01635 16.2945C4.19067 16.6238 4.46881 16.8915 4.81092 17.0593C4.90082 17.1033 5.08395 17.1693 5.57788 17.2081C6.09304 17.2486 6.7699 17.25 7.81818 17.25L16.1818 17.25C17.2301 17.25 17.907 17.2486 18.4221 17.2081C18.916 17.1693 19.0992 17.1033 19.1891 17.0593C19.5312 16.8915 19.8093 16.6238 19.9836 16.2945C20.0295 16.208 20.098 16.0317 20.1383 15.5563C20.1804 15.0604 20.1818 14.409 20.1818 13.4Z" fill="#333333"/>
<path fill-rule="evenodd" clip-rule="evenodd" d="M8.94084 19H7.81818C5.78163 19 4.76335 19 3.98549 18.6185C3.30126 18.283 2.74497 17.7475 2.39634 17.089C2 16.3403 2 15.3602 2 13.4V10.6C2 8.63982 2 7.65972 2.39634 6.91103C2.74497 6.25247 3.30126 5.71703 3.98549 5.38148C4.76335 5 5.78163 5 7.81818 5H16.1818C18.2184 5 19.2366 5 20.0145 5.38148C20.6987 5.71703 21.255 6.25247 21.6037 6.91103C22 7.65972 22 8.63982 22 10.6V13.4C22 15.3602 22 16.3403 21.6037 17.089C21.255 17.7475 20.6987 18.283 20.0145 18.6185C19.2366 19 18.2184 19 16.1818 19H15.0592L13.2264 19H10.7736L8.94084 19ZM20.1818 13.4V10.6C20.1818 9.59103 20.1804 8.93955 20.1383 8.44371C20.098 7.9683 20.0295 7.79204 19.9836 7.70552C19.8093 7.37623 19.5312 7.10852 19.1891 6.94074C19.0992 6.89665 18.916 6.83072 18.4221 6.79187C17.907 6.75136 17.2301 6.75 16.1818 6.75L7.81818 6.75C6.7699 6.75 6.09304 6.75136 5.57788 6.79187C5.08395 6.83072 4.90082 6.89665 4.81093 6.94074C4.46881 7.10852 4.19067 7.37623 4.01635 7.70552C3.97055 7.79204 3.90204 7.9683 3.86169 8.44371C3.81959 8.93955 3.81818 9.59103 3.81818 10.6L3.81818 13.4C3.81818 14.409 3.81959 15.0604 3.86169 15.5563C3.90204 16.0317 3.97055 16.208 4.01635 16.2945C4.19067 16.6238 4.46881 16.8915 4.81092 17.0593C4.90082 17.1033 5.08395 17.1693 5.57788 17.2081C6.09304 17.2486 6.7699 17.25 7.81818 17.25L16.1818 17.25C17.2301 17.25 17.907 17.2486 18.4221 17.2081C18.916 17.1693 19.0992 17.1033 19.1891 17.0593C19.5312 16.8915 19.8093 16.6238 19.9836 16.2945C20.0295 16.208 20.098 16.0317 20.1383 15.5563C20.1804 15.0604 20.1818 14.409 20.1818 13.4Z" fill="#333333"/>
</mask>
<g mask="url(#mask0)">
<path d="M22 9.66672H2V5.36844C2 5.16498 2.15441 5 2.34484 5H21.6552C21.8456 5 22 5.16498 22 5.36844L22 9.66672Z" fill="#F5F5F5"/>
<path d="M21.6551 19H2.34484C2.15441 19 2 18.835 2 18.6316V14.3333H22V18.6316C22 18.8351 21.8455 19 21.6551 19Z" fill="#FF4B55"/>
<path d="M22 9.6666H2V14.333H22V9.6666Z" fill="#41479B"/>
</g>
</svg>
